<?xml version="1.0" standalone="no"?>
<!DOCTYPE svg PUBLIC "-//W3C//DTD SVG 20010904//EN"
 "http://www.w3.org/TR/2001/REC-SVG-20010904/DTD/svg10.dtd">
<svg version="1.0" xmlns="http://www.w3.org/2000/svg"
 width="512.000000pt" height="512.000000pt" viewBox="0 0 512.000000 512.000000"
 preserveAspectRatio="xMidYMid meet">

<g transform="translate(0.000000,512.000000) scale(0.100000,-0.100000)"
fill="#000000" stroke="none">
<path d="M2052 3548 l-1011 -1473 529 -3 c292 -1 530 -5 530 -9 0 -8 -459
-1932 -466 -1953 -3 -10 -2 -12 5 -5 5 6 462 669 1015 1475 l1005 1465 -529 3
c-292 1 -530 6 -530 10 0 4 106 446 234 982 129 536 233 976 231 978 -1 1
-457 -660 -1013 -1470z"/>
<path d="M515 3990 c-191 -38 -346 -177 -411 -370 -18 -52 -19 -105 -19 -1065
l0 -1010 25 -65 c70 -177 199 -295 376 -340 72 -19 111 -20 610 -20 l534 0 5
22 c3 13 40 170 84 350 43 180 76 330 73 333 -3 3 -275 5 -604 5 -329 0 -598
3 -598 6 0 5 1444 2115 1473 2152 7 9 -144 12 -749 11 -418 -1 -777 -5 -799
-9z"/>
<path d="M3070 3997 c0 -3 -36 -154 -80 -337 -44 -183 -80 -341 -80 -351 0
-18 20 -19 604 -19 l605 0 -744 -1082 -743 -1083 752 -3 c720 -2 754 -1 829
18 177 44 309 164 376 340 22 59 25 82 29 266 l4 202 97 4 c80 3 106 8 153 31
61 30 105 74 140 140 23 42 23 46 23 437 0 391 0 395 -23 437 -35 66 -79 110
-140 140 -47 23 -73 28 -153 31 l-97 4 -4 202 c-4 187 -6 206 -30 270 -60 157
-171 267 -334 328 -58 22 -68 23 -621 26 -310 1 -563 1 -563 -1z"/>
</g>
</svg>
