<?xml version="1.0" encoding="UTF-8"?>
<svg version="1.1" xmlns="http://www.w3.org/2000/svg" width="512" height="512">
<path d="M0 0 C23.77569019 22.7746085 38.71228788 56.77737504 39.7578125 89.5859375 C40.93412646 147.2473501 6.33868099 199.08143114 -29.4609375 241.7578125 C-30.96199059 243.61112673 -32.4619715 245.46530982 -33.9609375 247.3203125 C-37.63070328 251.80842326 -41.4417454 256.13897689 -45.34375 260.42578125 C-47.24144919 262.51605139 -49.10827165 264.62767365 -50.9609375 266.7578125 C-52.12654328 268.09207336 -53.29336122 269.42527563 -54.4609375 270.7578125 C-55.06389648 271.44617188 -55.66685547 272.13453125 -56.28808594 272.84375 C-62.43506691 279.76759594 -68.8658437 286.38162579 -75.40087891 292.93798828 C-77.22890159 294.77587351 -79.04598569 296.62417085 -80.86328125 298.47265625 C-82.03580176 299.65169498 -83.20895579 300.83010409 -84.3828125 302.0078125 C-84.91936462 302.55671143 -85.45591675 303.10561035 -86.00872803 303.67114258 C-90.05473983 307.69339839 -93.0357934 309.71205506 -98.7734375 309.8203125 C-108.18578848 307.10827917 -115.84142352 296.53081646 -122.64282227 289.70629883 C-124.51923225 287.82452976 -126.40092719 285.94816512 -128.28320312 284.07226562 C-134.2221762 278.13698081 -140.05168869 272.1867565 -145.4609375 265.7578125 C-146.52922012 264.53078187 -147.59954942 263.30553024 -148.671875 262.08203125 C-155.06485881 254.74348702 -161.39427048 247.37050111 -167.4609375 239.7578125 C-167.96173828 239.13100586 -168.46253906 238.50419922 -168.97851562 237.85839844 C-187.9879009 213.99006167 -205.83413987 188.65374578 -218.4609375 160.7578125 C-218.7914209 160.0349707 -219.1219043 159.31212891 -219.46240234 158.56738281 C-232.92133103 128.82270872 -239.04230912 98.06600237 -231.4609375 65.7578125 C-231.3052832 65.07380371 -231.14962891 64.38979492 -230.98925781 63.68505859 C-225.08690964 38.69138265 -211.53759922 16.73745088 -193.4609375 -1.2421875 C-192.57792969 -2.12519531 -191.69492188 -3.00820312 -190.78515625 -3.91796875 C-136.28299145 -55.83632722 -53.1877855 -48.45998235 0 0 Z M-133.4609375 68.7578125 C-141.18613452 79.72613468 -144.58534483 91.14663872 -142.9609375 104.5703125 C-140.4283903 117.48462605 -133.60273298 127.76692895 -123.05078125 135.53125 C-112.08013521 142.65956201 -99.85898118 144.55607143 -87.03125 142.1015625 C-79.42615599 140.02581919 -73.51190295 136.76993964 -67.4609375 131.7578125 C-66.82542969 131.25765625 -66.18992187 130.7575 -65.53515625 130.2421875 C-56.62854585 122.4217491 -52.60795071 110.84179313 -51.55078125 99.35546875 C-51.23278962 86.62197788 -55.50656701 76.08284699 -63.7109375 66.3828125 C-72.66527293 57.07030365 -84.49298403 51.77105604 -97.4609375 51.2578125 C-111.21900282 51.80232696 -124.76520063 57.97339373 -133.4609375 68.7578125 Z " fill="#000000" transform="translate(353.4609375,80.2421875)"/>
<path d="M0 0 C1.96775844 1.81393661 3.64963109 3.54381532 5.375 5.5625 C5.85251709 6.10318115 6.33003418 6.6438623 6.82202148 7.20092773 C7.77908199 8.28712442 8.7312531 9.3776509 9.67822266 10.47265625 C10.83997639 11.81508908 12.0183221 13.14312534 13.19921875 14.46875 C15.6705046 17.24570853 17.93406481 19.90109721 20 23 C19.05898437 23.56847656 18.11796875 24.13695312 17.1484375 24.72265625 C5.5226684 31.82311945 5.5226684 31.82311945 -2 43 C-2.86695432 47.85494417 -2.4338763 51.90917088 0.0625 56.1875 C10.34302737 70.55751892 29.50273694 75.9680766 46.12890625 78.97265625 C77.0034853 84.00801942 112.60240411 82.67979423 140 66 C145.85123782 61.72950677 151.12473457 57.38237936 152.33984375 49.91015625 C152.77365513 43.72040847 150.93291819 39.70153419 147 35 C142.13204799 29.87258862 136.10494614 26.46397346 130 23 C134.18678955 18.0617354 138.46316744 13.22045352 142.83984375 8.44921875 C144.98348395 6.09431891 144.98348395 6.09431891 146.62890625 3.76953125 C147.10199219 3.12371094 147.57507813 2.47789062 148.0625 1.8125 C148.44535156 1.24144531 148.82820312 0.67039062 149.22265625 0.08203125 C152.35198143 -1.82307441 155.61827366 -0.7939082 159 0 C162.42033371 1.02880657 165.73685475 2.26227762 169.0625 3.5625 C170.44514038 4.10040161 170.44514038 4.10040161 171.85571289 4.64916992 C191.3143781 12.38493242 212.22573979 23.88089554 221 44 C224.30458251 54.2407635 223.08508361 63.12194473 219 73 C205.40901487 96.79988179 176.97654097 108.06852425 151.86474609 115.21826172 C92.35031675 131.45869147 16.61114846 130.98546221 -38.68017578 100.80419922 C-53.72272875 92.17944712 -67.46362748 81.13467907 -72.3125 63.8125 C-74.0477749 54.18961191 -72.1629248 45.49049475 -67.26953125 36.99609375 C-53.46959117 17.19138932 -30.07031882 6.45333502 -7.62890625 -0.5390625 C-4.56612745 -1.07607275 -2.92214051 -1.09637611 0 0 Z " fill="#000000" transform="translate(181,347)"/>
</svg>
