<?xml version="1.0" encoding="UTF-8"?>
<svg version="1.1" xmlns="http://www.w3.org/2000/svg" width="512" height="512">
<path d="M0 0 C5.67371423 4.78651181 10.48942762 10.20819536 14.83984375 16.21484375 C21.03050112 25.17238524 21.03050112 25.17238524 30.4609375 29.95703125 C35.80098931 30.78635748 39.97120229 30.01387224 44.4609375 26.95703125 C47.77349213 23.67663734 50.61698197 20.01557888 53.51953125 16.375 C74.64570771 -9.94798992 103.5383175 -28.22791224 137.46875 -32.609375 C175.54526625 -36.45477286 213.0095694 -27.35258964 243.0390625 -3.20703125 C246.25111532 -0.56205069 249.36714243 2.17477918 252.4609375 4.95703125 C253.45673828 5.84455078 253.45673828 5.84455078 254.47265625 6.75 C275.61844981 26.7128121 289.55137596 58.35900829 290.66748047 87.19482422 C290.79008072 91.90738387 290.79522545 96.61820277 290.7734375 101.33203125 C290.77128235 102.17051605 290.7691272 103.00900085 290.76690674 103.87289429 C290.64154682 134.32919566 284.1176317 160.98694866 274.4609375 189.95703125 C236.5109375 189.95703125 198.5609375 189.95703125 159.4609375 189.95703125 C148.4609375 159.95703125 148.4609375 159.95703125 143.9140625 146.95703125 C142.33402773 142.449679 142.33402773 142.449679 140.75244141 137.94287109 C140.04396215 135.91176438 139.34273033 133.87811829 138.64794922 131.84228516 C137.61079539 128.81064128 136.54645513 125.78975097 135.4765625 122.76953125 C135.17534485 121.86654297 134.8741272 120.96355469 134.56378174 120.03320312 C132.43371114 114.12782241 129.80330175 110.36992214 124.4609375 106.95703125 C119.9225811 105.31549808 116.76769749 106.21284796 112.390625 107.77734375 C108.02577287 110.44573513 105.94224094 114.63596298 104.3046875 119.32739258 C103.92836182 120.38958008 103.55203613 121.45176758 103.16430664 122.54614258 C102.76719482 123.69880615 102.37008301 124.85146973 101.9609375 126.0390625 C101.30324435 127.90769716 100.64554999 129.77633141 99.98780823 131.64494896 C99.2874129 133.64087926 98.59194905 135.63846471 97.89794922 137.6366272 C96.45077421 141.8030835 94.99035098 145.96481317 93.52734375 150.12573242 C92.0165213 154.42427056 90.50637174 158.72303488 89.00073242 163.02339172 C83.8860901 177.62889316 78.67825292 192.2004404 73.4609375 206.76953125 C71.85605961 211.25495419 70.25200097 215.7406695 68.6484375 220.2265625 C68.28347168 221.24736404 67.91850586 222.26816559 67.54248047 223.31990051 C64.49207916 231.8574522 61.46791468 240.40409737 58.4609375 248.95703125 C57.8009375 248.95703125 57.1409375 248.95703125 56.4609375 248.95703125 C56.25906326 248.34839233 56.05718903 247.73975342 55.84919739 247.1126709 C53.73617009 240.74892881 51.6084812 234.39022357 49.47241211 228.03417969 C48.67831467 225.66498487 47.8878987 223.29455268 47.10131836 220.92285156 C45.96665736 217.50379717 44.81860353 214.08948809 43.66796875 210.67578125 C43.14889702 209.09718323 43.14889702 209.09718323 42.61933899 207.48669434 C39.08779978 197.054149 39.08779978 197.054149 31.90966797 188.98901367 C26.71497978 187.4345788 21.67722572 187.47587048 16.28125 187.4453125 C15.1133493 187.4273613 13.94544861 187.4094101 12.74215698 187.39091492 C9.02345353 187.33686897 5.30487804 187.30293347 1.5859375 187.26953125 C-0.94012195 187.23635325 -3.46616453 187.20186315 -5.9921875 187.16601562 C-12.17436442 187.08114556 -18.35655801 187.0127713 -24.5390625 186.95703125 C-28.06316091 176.00926711 -31.24356716 164.99662278 -34.23552322 153.89228439 C-34.97265636 151.15802064 -35.71430367 148.42501546 -36.4571228 145.69229126 C-38.56471288 137.93639669 -40.66575762 130.17874249 -42.76074219 122.41943359 C-44.05141387 117.64033648 -45.34826188 112.86295061 -46.64893723 108.08656693 C-47.14009949 106.2779725 -47.62888468 104.46873071 -48.11519241 102.65882492 C-48.79317129 100.13600977 -49.47896806 97.61543951 -50.16650391 95.09521484 C-50.36292984 94.35646118 -50.55935577 93.61770752 -50.76173401 92.85656738 C-52.29623216 87.28089001 -53.8156625 82.51629791 -58.1640625 78.58203125 C-62.47923487 76.50435567 -65.83286582 76.12206087 -70.5390625 76.95703125 C-76.48112996 79.92806498 -78.69428974 83.49872818 -80.8152771 89.6708374 C-81.2491305 91.13097509 -81.67529885 92.59341044 -82.09521484 94.05761719 C-82.33146072 94.86009384 -82.5677066 95.6625705 -82.81111145 96.48936462 C-83.58909872 99.13813687 -84.35706538 101.78970378 -85.125 104.44140625 C-85.66862185 106.29943643 -86.21287258 108.15728272 -86.75772095 110.01495361 C-88.19226366 114.91224002 -89.61835534 119.81194802 -91.04266357 124.71221924 C-92.47659337 129.64032971 -93.91824732 134.56617809 -95.359375 139.4921875 C-97.23927615 145.92038419 -99.1169007 152.3492307 -100.98902321 158.77969742 C-101.70715327 161.24545065 -102.42659229 163.71081906 -103.1461792 166.17614746 C-104.09631193 169.43240198 -105.03964629 172.69053878 -105.97930908 175.9498291 C-106.43357357 177.51637507 -106.8878963 179.08290416 -107.34228516 180.64941406 C-107.5498966 181.37470684 -107.75750805 182.09999962 -107.97141075 182.84727097 C-109.42589318 187.84386193 -109.42589318 187.84386193 -110.5390625 188.95703125 C-113.55256488 189.05232737 -116.54310356 189.08255029 -119.55688477 189.07055664 C-120.50312714 189.07070267 -121.44936951 189.07084869 -122.42428589 189.07099915 C-125.56803642 189.07029961 -128.71172851 189.06250534 -131.85546875 189.0546875 C-134.02880318 189.05282346 -136.20213802 189.05139949 -138.37547302 189.05039978 C-144.10807445 189.04657346 -149.84065073 189.03674222 -155.57324219 189.0256958 C-161.41796529 189.01548412 -167.26269243 189.01090268 -173.10742188 189.00585938 C-184.5846465 188.99512005 -196.06185241 188.97804227 -207.5390625 188.95703125 C-208.67378753 185.59479822 -209.80350944 182.2309043 -210.93237305 178.86669922 C-211.25193718 177.92001877 -211.57150131 176.97333832 -211.90074921 175.99797058 C-214.10308389 169.42375452 -215.98986355 162.88538749 -217.3515625 156.08203125 C-217.63676758 154.7671875 -217.63676758 154.7671875 -217.92773438 153.42578125 C-220.71592774 140.12676962 -221.89148289 127.13017386 -221.85473633 113.57885742 C-221.85157866 111.15692933 -221.87514078 108.73623149 -221.90039062 106.31445312 C-222.05770864 67.5963342 -206.98750013 32.02865819 -180.5390625 3.95703125 C-179.92804688 3.2815625 -179.31703125 2.60609375 -178.6875 1.91015625 C-130.44600825 -49.41057965 -50.70412166 -40.79731635 0 0 Z " fill="#000000" transform="translate(221.5390625,59.04296875)"/>
<path d="M0 0 C0.66 0 1.32 0 2 0 C2.20187424 0.76341705 2.40374847 1.52683411 2.61174011 2.31338501 C4.52221631 9.52673104 6.44788625 16.73576767 8.39051342 23.94051552 C9.38857733 27.64421392 10.38080724 31.34926842 11.35961914 35.05810547 C12.30543434 38.64103407 13.26668302 42.21949747 14.23851967 45.79545212 C14.6055763 47.15663926 14.96716069 48.51931488 15.32301903 49.88347244 C18.00241721 61.13054425 18.00241721 61.13054425 25.81150818 69.12011719 C28.48951353 70.19680884 30.61751185 70.27914007 33.50292969 70.31884766 C34.60376892 70.33871735 35.70460815 70.35858704 36.83880615 70.37905884 C38.02121887 70.39061005 39.20363159 70.40216125 40.421875 70.4140625 C41.63699768 70.43342865 42.85212036 70.4527948 44.10406494 70.4727478 C47.98597184 70.53253806 51.8679084 70.57892746 55.75 70.625 C58.38152337 70.66318022 61.01303424 70.70223198 63.64453125 70.7421875 C70.09624331 70.83823929 76.54803057 70.92328865 83 71 C84.87258485 76.34577446 86.74289691 81.69233825 88.6116333 87.03945923 C89.28645807 88.96933289 89.96187185 90.89900068 90.63787842 92.82846069 C94.47678509 103.78661325 98.27274946 114.75568864 101.9375 125.7734375 C102.5641191 127.64727408 103.19090647 129.52105439 103.81787109 131.39477539 C104.71811602 134.0858589 105.61373957 136.77801005 106.4944458 139.47555542 C107.31009587 141.97344339 108.14177887 144.46548439 108.9765625 146.95703125 C109.20939941 147.68646942 109.44223633 148.41590759 109.68212891 149.16744995 C111.57694629 154.74605879 114.16227451 159.23600848 119.3125 162.4375 C124.08210537 163.4357895 128.21080174 162.65061755 132.75 161 C139.29511854 155.18211685 141.6855663 142.73402708 144.56869507 134.57345581 C145.52608648 131.86366509 146.48774356 129.15542024 147.45043945 126.44750977 C148.86763439 122.46030185 150.2831964 118.47251934 151.69775391 114.484375 C155.84529164 102.79648902 160.01729574 91.11731302 164.1875 79.4375 C164.61365601 78.24349579 165.03981201 77.04949158 165.47888184 75.81930542 C172.24887168 56.85369559 179.07307146 37.90887593 186 19 C188.63077698 20.31538849 188.66900272 21.31802152 189.63232422 24.05737305 C189.93959442 24.91884445 190.24686462 25.78031586 190.56344604 26.66789246 C191.05411057 28.07558647 191.05411057 28.07558647 191.5546875 29.51171875 C192.25910979 31.48632984 192.96353703 33.46093915 193.66796875 35.43554688 C194.77159026 38.55740824 195.87244072 41.68023163 196.97216797 44.8034668 C198.03457811 47.81283305 199.10680961 50.81857159 200.1796875 53.82421875 C200.50274872 54.75256027 200.82580994 55.68090179 201.15866089 56.63737488 C203.19992466 62.34785896 205.16935989 67.61114152 209.93434143 71.63244629 C214.59764727 73.71269139 219.07227498 73.43922981 224.12426758 73.43237305 C225.8078537 73.44766052 225.8078537 73.44766052 227.52545166 73.46325684 C231.23186203 73.49342833 234.93801412 73.50265943 238.64453125 73.51171875 C241.21572227 73.52856229 243.78690503 73.54671209 246.358078 73.56611633 C252.4317383 73.6087994 258.50533159 73.63831655 264.57909364 73.66143972 C271.49572327 73.68850759 278.41221409 73.73241805 285.32874453 73.77772844 C299.5524183 73.87053156 313.77614296 73.94223208 328 74 C317.76014285 105.21929889 291.93355683 133.68075313 270.109375 157.671875 C268.75197795 159.17003915 267.40708703 160.67968072 266.078125 162.203125 C260.91609941 168.08543323 255.46106853 173.64540542 249.9375 179.1875 C249.18154541 179.94804687 248.42559082 180.70859375 247.64672852 181.4921875 C243.4796081 185.6479756 239.22599178 189.63850376 234.76635742 193.47875977 C232.53383192 195.401478 230.36200334 197.38710027 228.1875 199.375 C223.92389983 203.21806298 219.55447727 206.89322734 215.08984375 210.5 C212.84039335 212.32003572 210.60526208 214.15218882 208.37890625 216 C199.30601343 223.5013096 189.9785359 230.53659028 180.36376953 237.32763672 C177.95308661 239.03319115 175.55251521 240.75234932 173.15234375 242.47265625 C156.0636758 254.65447628 138.2304699 265.59947375 119.94726562 275.89306641 C118.28938978 276.83549483 116.65031414 277.81087148 115.015625 278.79296875 C108.7283099 282.36712718 103.13439483 283.70537069 96 282 C88.94514583 279.10247061 82.46777997 275.00167286 76 271 C75.07203613 270.42781738 74.14407227 269.85563477 73.18798828 269.26611328 C66.73569711 265.26296409 60.35403568 261.15697477 54 257 C53.28972656 256.53706543 52.57945312 256.07413086 51.84765625 255.59716797 C36.44349279 245.53489387 21.52457433 234.83850435 6.99609375 223.55078125 C5.10492973 222.08152075 3.20902388 220.61858051 1.3125 219.15625 C-9.67882688 210.64218393 -20.22046259 201.62118119 -30.50170898 192.26293945 C-32.05529291 190.85571094 -33.61606644 189.45632704 -35.18774414 188.06933594 C-41.85960985 182.16381873 -48.19242744 175.96142863 -54.47827148 169.65209961 C-56.19207233 167.9329133 -57.91119082 166.21917417 -59.63085938 164.50585938 C-65.30165531 158.83874813 -70.81680029 153.12243139 -76 147 C-76.9365589 145.93942115 -77.8752935 144.88075879 -78.81640625 143.82421875 C-126 90.21269045 -126 90.21269045 -126 73 C-124.7855722 72.99635437 -123.57114441 72.99270874 -122.31991577 72.98895264 C-110.87246357 72.95200395 -99.42528041 72.89423238 -87.97803307 72.81609726 C-82.0929287 72.77659608 -76.20797456 72.7444204 -70.32275391 72.72900391 C-64.64267042 72.71385496 -58.96299985 72.67944012 -53.28310013 72.63169098 C-51.1166302 72.61685911 -48.95010132 72.60895795 -46.78358078 72.60811615 C-43.74768857 72.60575025 -40.71294099 72.57869992 -37.67724609 72.54589844 C-36.78244537 72.5509288 -35.88764465 72.55595917 -34.96572876 72.56114197 C-29.51198346 72.47003518 -26.28560716 71.6963766 -22 68 C-17.45628038 62.21213347 -15.93912705 53.77406764 -13.92578125 46.85546875 C-13.55647995 45.60872879 -13.18717865 44.36198883 -12.8066864 43.07746887 C-11.83224115 39.78772729 -10.86664847 36.49545482 -9.90307617 33.20251465 C-8.91905231 29.84507729 -7.92709676 26.48998652 -6.93554688 23.13476562 C-5.19649037 17.2487857 -3.4647302 11.36069162 -1.73872375 5.47087097 C-1.19060907 3.63754606 -0.60510412 1.81531236 0 0 Z " fill="#000000" transform="translate(154,204)"/>
</svg>
