<?xml version="1.0" standalone="no"?>
<!DOCTYPE svg PUBLIC "-//W3C//DTD SVG 20010904//EN"
 "http://www.w3.org/TR/2001/REC-SVG-20010904/DTD/svg10.dtd">
<svg version="1.0" xmlns="http://www.w3.org/2000/svg"
 width="512.000000pt" height="512.000000pt" viewBox="0 0 512.000000 512.000000"
 preserveAspectRatio="xMidYMid meet">

<g transform="translate(0.000000,512.000000) scale(0.100000,-0.100000)"
fill="#000000" stroke="none">
<path d="M1346 4949 c-58 -46 -373 -487 -524 -735 -68 -111 -75 -142 -37 -179
50 -51 93 -29 155 77 96 162 443 658 460 657 7 0 119 -151 228 -309 406 -585
652 -1140 652 -1470 0 -74 21 -104 75 -104 55 0 75 29 75 109 0 55 -29 252
-46 312 -5 19 4 27 86 68 116 58 245 138 350 215 l80 60 80 -60 c239 -176 535
-321 830 -404 106 -30 340 -78 430 -88 25 -3 25 -4 22 -83 -7 -185 -67 -495
-142 -728 -33 -103 -32 -125 3 -157 26 -25 62 -25 86 -1 18 18 72 169 110 311
46 172 84 419 97 632 6 114 6 117 -18 141 -19 19 -39 25 -99 31 -457 44 -937
234 -1271 503 -127 102 -122 102 -243 8 -116 -90 -221 -158 -339 -221 l-104
-55 -37 96 c-20 53 -35 98 -34 99 2 2 47 27 99 56 182 102 303 192 451 337
l86 84 79 -81 c359 -370 881 -589 1501 -629 68 -5 127 -11 131 -15 13 -13 14
-207 3 -368 -36 -510 -158 -948 -383 -1378 -146 -281 -340 -542 -578 -781
-158 -159 -258 -245 -432 -372 -105 -76 -307 -207 -321 -207 -25 0 -399 257
-537 369 -81 65 -103 72 -142 41 -55 -43 -40 -86 54 -163 237 -194 573 -417
627 -417 49 0 425 250 606 404 370 313 657 670 863 1073 197 387 309 754 368
1208 18 143 29 463 19 589 -6 89 -10 102 -34 126 -26 26 -30 27 -186 33 -567
20 -1073 215 -1417 545 -55 53 -121 123 -145 154 -69 91 -105 90 -172 -2 -50
-69 -187 -203 -278 -273 -98 -75 -303 -197 -331 -197 -4 0 -20 26 -36 58 -88
179 -306 529 -476 762 -107 148 -227 300 -252 323 -27 23 -59 22 -92 -4z"/>
<path d="M642 3893 c-26 -10 -144 -271 -212 -469 -66 -192 -85 -296 -85 -474
0 -171 18 -265 77 -402 67 -157 191 -318 329 -424 122 -93 293 -168 445 -193
l70 -12 45 -107 c116 -277 378 -683 582 -899 58 -61 92 -69 132 -28 47 46 41
59 -108 242 -161 197 -317 443 -424 671 -30 63 -53 115 -51 117 2 1 42 7 91
14 48 6 94 14 101 17 10 4 26 -20 54 -80 149 -318 422 -681 694 -923 206 -184
465 -373 511 -373 27 0 190 109 347 232 125 98 398 368 494 488 157 197 356
525 356 588 0 55 -59 88 -105 58 -14 -9 -36 -39 -51 -67 -202 -399 -538 -779
-960 -1083 l-89 -64 -80 55 c-412 286 -739 654 -967 1088 -32 61 -58 113 -58
117 0 4 28 21 62 38 208 106 380 283 479 495 45 97 48 127 14 160 -50 51 -95
29 -140 -72 -196 -429 -670 -642 -1102 -494 -236 81 -438 270 -534 500 -123
295 -79 619 147 1102 46 98 53 120 45 142 -15 39 -65 58 -109 40z"/>
<path d="M801 3024 c-23 -16 -23 -21 -19 -108 16 -292 263 -539 565 -563 67
-5 73 -4 97 20 15 15 26 37 26 52 0 38 -42 75 -84 75 -105 0 -222 49 -308 128
-92 86 -132 168 -148 302 -6 58 -13 78 -30 92 -28 22 -68 23 -99 2z"/>
</g>
</svg>
